Coordinates
version=1
nRows=6
nColumns=46
inDegrees=yes

Units are S.I. units (second, meters, Newtons, ...)
Angles are in degrees.

endheader
time	pelvis_tilt	pelvis_list	pelvis_rotation	pelvis_tx	pelvis_ty	pelvis_tz	bb_angle	bb_tx	bb_ty	bb_tz	hip_flexion_r	hip_adduction_r	hip_rotation_r	knee_angle_r	knee_angle_r_beta	ankle_angle_r	subtalar_angle_r	mtp_angle_r	crank_angle_r	hip_flexion_l	hip_adduction_l	hip_rotation_l	knee_angle_l	knee_angle_l_beta	ankle_angle_l	subtalar_angle_l	mtp_angle_l	crank_angle_l	lumbar_extension	lumbar_bending	lumbar_rotation	arm_flex_r	arm_add_r	arm_rot_r	elbow_flex_r	pro_sup_r	wrist_flex_r	wrist_dev_r	arm_flex_l	arm_add_l	arm_rot_l	elbow_flex_l	pro_sup_l	wrist_flex_l	wrist_dev_l
      2.50500000	    -15.80162522	      1.54242175	     -2.49643145	      0.12115006	      1.09733781	     -0.26545950	      0.00000000	      0.50000000	      0.00000000	      0.25000000	     52.27069971	     -3.92170513	      0.27798524	     37.66873763	      0.65744350	    -10.71544713	     -8.95920175	      0.00000000	      0.00000000	     77.87210078	     -1.86789344	      2.73412231	    110.54741470	      1.92941637	      1.38791936	    -16.41397348	      0.00000000	      0.00000000	    -64.41701552	      3.33045829	     -1.95251337	     89.18855143	    -10.72021637	     30.19092670	     60.91466072	     37.89799669	      0.00000000	      0.00000000	     86.16030160	    -26.14556468	     34.63262782	     62.13681796	     43.89163285	      0.00000000	      0.00000000
      2.51000000	    -15.26846903	      1.57562541	     -2.51548645	      0.12151345	      1.09800643	     -0.26505313	      0.00000000	      0.50000000	      0.00000000	      0.25000000	     51.05657787	     -4.06694203	     -0.09962658	     36.91870829	      0.64435302	    -11.60009591	     -8.71095905	      0.00000000	      0.00000000	     78.22033655	     -1.90405184	      2.77783563	    111.35056392	      1.94343396	      1.54733808	    -16.43314126	      0.00000000	      0.00000000	    -64.50742909	      3.02897988	     -1.44854045	     89.16604018	    -11.11181253	     30.05127274	     59.54860134	     37.65776869	      0.00000000	      0.00000000	     86.53471573	    -23.71355184	     34.27638278	     58.82615931	     43.43171760	      0.00000000	      0.00000000
      2.51500000	    -15.00213885	      1.76210929	     -2.54674513	      0.12184037	      1.09840332	     -0.26463564	      0.00000000	      0.50000000	      0.00000000	      0.25000000	     50.20259322	     -4.31661811	     -0.34942469	     36.23543763	      0.63242769	    -12.68754931	     -8.20017839	      0.00000000	      0.00000000	     78.82698327	     -1.88680476	      2.67484236	    112.05029785	      1.95564663	      1.50912588	    -16.42056029	      0.00000000	      0.00000000	    -64.55485041	      2.68154296	     -1.65862408	     89.07658457	    -11.20097426	     30.10385603	     59.29217576	     37.62927865	      0.00000000	      0.00000000	     86.46536736	    -23.44325500	     34.31442195	     58.78351168	     43.43835955	      0.00000000	      0.00000000
      2.52000000	    -14.67608062	      1.88058481	     -2.55420394	      0.12214030	      1.09906208	     -0.26421273	      0.00000000	      0.50000000	      0.00000000	      0.25000000	     49.25272180	     -4.53000211	     -0.67994000	     35.51851977	      0.61991512	    -13.80725798	     -7.71331525	      0.00000000	      0.00000000	     79.34161082	     -1.86151776	      2.65969620	    112.68794165	      1.96677561	      1.47055227	    -16.38962755	      0.00000000	      0.00000000	    -64.65441983	      2.36396961	     -1.79998901	     89.02147444	    -11.30537265	     30.18198748	     58.85958040	     37.57411082	      0.00000000	      0.00000000	     86.45878215	    -23.09636248	     34.37438680	     58.62021337	     43.42585706	      0.00000000	      0.00000000
      2.52500000	    -14.36893112	      1.95856062	     -2.53821738	      0.12241861	      1.09984798	     -0.26372611	      0.00000000	      0.50000000	      0.00000000	      0.25000000	     48.33806673	     -4.71369077	     -1.04018408	     34.85329591	      0.60830477	    -14.88106834	     -7.33601567	      0.00000000	      0.00000000	     79.85801719	     -1.86433412	      2.67250866	    113.26754170	      1.97689154	      1.63477889	    -16.47783643	      0.00000000	      0.00000000	    -64.75264911	      2.05818906	     -1.96263577	     88.93465437	    -11.39449200	     30.27118425	     58.38090321	     37.50782881	      0.00000000	      0.00000000	     86.43095250	    -22.73836208	     34.50283797	     58.35822501	     43.40167985	      0.00000000	      0.00000000
      2.53000000	    -13.96462583	      1.92524338	     -2.47130300	      0.12258244	      1.10096376	     -0.26315345	      0.00000000	      0.50000000	      0.00000000	      0.25000000	     47.24481587	     -4.79882890	     -1.42454112	     34.07388526	      0.59470149	    -16.22521010	     -7.43279865	      0.00000000	      0.00000000	     80.26225982	     -1.85042424	      2.84696336	    113.74936440	      1.98530093	      1.62854300	    -16.13085228	      0.00000000	      0.00000000	    -64.79745940	      1.79678543	     -1.74868007	     89.01450469	    -11.50316684	     30.46461399	     56.79989884	     37.33558718	      0.00000000	      0.00000000	     86.85009407	    -21.39335786	     34.83880412	     56.08227013	     43.12127750	      0.00000000	      0.00000000
